<svg xmlns="http://www.w3.org/2000/svg" xmlns:xlink="http://www.w3.org/1999/xlink" width="1080" zoomAndPan="magnify" viewBox="0 0 810 809.999993" height="1080" preserveAspectRatio="xMidYMid meet" version="1.2"><defs><clipPath id="eaa9cbcbd2"><path d="M 0.0390625 37 L 134 37 L 134 241 L 0.0390625 241 Z M 0.0390625 37 "/></clipPath><clipPath id="e86e1454c5"><rect x="0" width="137" y="0" height="266"/></clipPath><clipPath id="9ef132baaa"><rect x="0" width="356" y="0" height="81"/></clipPath></defs><g id="69493593d8"><rect x="0" width="810" y="0" height="809.999993" style="fill:#ffffff;fill-opacity:1;stroke:none;"/><rect x="0" width="810" y="0" height="809.999993" style="fill:#ffffff;fill-opacity:1;stroke:none;"/><g transform="matrix(1,0,0,1,215,254)"><g clip-path="url(#e86e1454c5)"><g clip-rule="nonzero" clip-path="url(#eaa9cbcbd2)"><g style="fill:#007d0c;fill-opacity:1;"><g transform="translate(0.348885, 206.688217)"><path style="stroke:none" d="M 112.71875 -161.125 C 119.695312 -156.332031 124.710938 -151.171875 127.765625 -145.640625 C 130.960938 -140.117188 132.78125 -133.21875 133.21875 -124.9375 L 133.21875 -121.21875 C 133.21875 -110.757812 130.816406 -100.660156 126.015625 -90.921875 C 120.640625 -80.015625 112.648438 -70.347656 102.046875 -61.921875 C 96.367188 -57.265625 90.914062 -53.410156 85.6875 -50.359375 C 80.457031 -47.304688 74.425781 -44.617188 67.59375 -42.296875 C 63.957031 -40.992188 60.03125 -39.757812 55.8125 -38.59375 C 51.457031 -37.425781 46.660156 -36.265625 41.421875 -35.109375 C 39.972656 -34.816406 39.394531 -34.304688 39.6875 -33.578125 C 40.125 -32.992188 42.082031 -31.175781 45.5625 -28.125 C 54.863281 -20.132812 63.734375 -15.703125 72.171875 -14.828125 C 80.453125 -13.953125 87.351562 -16.640625 92.875 -22.890625 C 93.894531 -23.910156 94.988281 -25.363281 96.15625 -27.25 C 97.3125 -29.144531 98.179688 -30.890625 98.765625 -32.484375 C 99.492188 -34.085938 100.148438 -35.394531 100.734375 -36.40625 C 101.460938 -37.570312 101.898438 -38.15625 102.046875 -38.15625 C 102.617188 -38.15625 103.78125 -37.570312 105.53125 -36.40625 C 107.414062 -35.394531 109.304688 -34.085938 111.203125 -32.484375 C 113.671875 -30.597656 114.976562 -28.78125 115.125 -27.03125 C 115.125 -25.4375 113.960938 -22.53125 111.640625 -18.3125 C 107.273438 -10.46875 101.457031 -5.671875 94.1875 -3.921875 C 86.78125 -2.035156 77.988281 -3.269531 67.8125 -7.625 C 65.195312 -8.789062 60.90625 -11.335938 54.9375 -15.265625 C 49.125 -19.046875 44.617188 -22.316406 41.421875 -25.078125 C 40.117188 -26.378906 38.882812 -27.46875 37.71875 -28.34375 C 36.695312 -29.070312 36.113281 -29.4375 35.96875 -29.4375 C 35.6875 -29.4375 35.546875 -27.984375 35.546875 -25.078125 C 35.398438 -22.171875 35.328125 -18.679688 35.328125 -14.609375 C 35.328125 -4.140625 36.050781 4.582031 37.5 11.5625 C 39.101562 18.53125 41.578125 24.34375 44.921875 29 C 46.515625 31.320312 47.164062 32.921875 46.875 33.796875 C 46.875 34.085938 46.582031 34.234375 46 34.234375 C 45.414062 34.234375 44.691406 34.015625 43.828125 33.578125 C 41.066406 32.265625 38.445312 30.519531 35.96875 28.34375 C 33.5 26.019531 31.394531 23.332031 29.65625 20.28125 C 26.164062 14.175781 23.765625 7.851562 22.453125 1.3125 C 21.003906 -5.226562 20.28125 -13.953125 20.28125 -24.859375 C 20.28125 -30.671875 20.132812 -34.664062 19.84375 -36.84375 C 19.695312 -39.175781 19.257812 -41.066406 18.53125 -42.515625 C 17.945312 -43.390625 17.582031 -44.191406 17.4375 -44.921875 C 17.289062 -45.640625 17.363281 -46.070312 17.65625 -46.21875 C 19.257812 -46.800781 20.425781 -47.96875 21.15625 -49.71875 C 21.875 -51.3125 22.671875 -54.796875 23.546875 -60.171875 C 24.859375 -68.023438 26.894531 -77.039062 29.65625 -87.21875 C 32.269531 -97.382812 35.539062 -108.503906 39.46875 -120.578125 C 41.351562 -126.097656 42.878906 -130.894531 44.046875 -134.96875 C 45.203125 -139.03125 45.707031 -141.132812 45.5625 -141.28125 C 45.269531 -141.570312 43.816406 -140.703125 41.203125 -138.671875 C 38.585938 -136.628906 35.828125 -134.15625 32.921875 -131.25 C 30.890625 -129.363281 28.925781 -127.476562 27.03125 -125.59375 C 25.144531 -123.550781 23.546875 -121.734375 22.234375 -120.140625 C 20.492188 -117.804688 18.894531 -115.695312 17.4375 -113.8125 C 15.988281 -111.925781 15.191406 -110.835938 15.046875 -110.546875 C 14.460938 -108.941406 11.84375 -109.445312 7.1875 -112.0625 C 2.394531 -114.832031 0 -117.160156 0 -119.046875 C 0 -120.359375 1.890625 -123.410156 5.671875 -128.203125 C 9.304688 -132.992188 13.15625 -137.28125 17.21875 -141.0625 C 23.320312 -146.875 30.007812 -151.890625 37.28125 -156.109375 C 44.550781 -160.472656 52.398438 -163.960938 60.828125 -166.578125 C 64.753906 -167.890625 68.023438 -168.757812 70.640625 -169.1875 C 73.253906 -169.476562 77.328125 -169.625 82.859375 -169.625 L 83.71875 -169.625 C 90.550781 -169.625 95.710938 -169.117188 99.203125 -168.109375 C 102.984375 -167.085938 107.488281 -164.757812 112.71875 -161.125 Z M 59.953125 -149.578125 C 57.628906 -148.410156 54.21875 -146.8125 49.71875 -144.78125 C 51.019531 -143.90625 52.832031 -142.664062 55.15625 -141.0625 C 56.757812 -140.050781 58.144531 -138.960938 59.3125 -137.796875 C 60.46875 -136.773438 61.117188 -135.972656 61.265625 -135.390625 C 61.410156 -134.816406 61.265625 -133.4375 60.828125 -131.25 C 60.242188 -128.925781 59.519531 -126.457031 58.65625 -123.84375 C 55.75 -115.269531 52.769531 -105.75 49.71875 -95.28125 C 46.65625 -84.8125 44.109375 -75.582031 42.078125 -67.59375 C 40.921875 -63.375 40.050781 -59.738281 39.46875 -56.6875 C 38.738281 -53.632812 38.375 -51.597656 38.375 -50.578125 C 38.375 -49.273438 39.535156 -48.84375 41.859375 -49.28125 C 44.179688 -49.707031 48.539062 -51.234375 54.9375 -53.859375 C 70.925781 -60.109375 84.375 -68.753906 95.28125 -79.796875 C 106.320312 -90.847656 113.515625 -102.914062 116.859375 -116 C 118.316406 -121.375 118.828125 -127.476562 118.390625 -134.3125 C 117.953125 -141 116.789062 -146.300781 114.90625 -150.21875 C 113.59375 -152.988281 112.570312 -154.734375 111.84375 -155.453125 C 110.976562 -156.179688 109.453125 -156.835938 107.265625 -157.421875 C 105.816406 -157.859375 104.21875 -158.148438 102.46875 -158.296875 C 100.726562 -158.585938 98.914062 -158.734375 97.03125 -158.734375 C 91.5 -158.734375 85.535156 -157.929688 79.140625 -156.328125 C 72.597656 -154.734375 66.203125 -152.484375 59.953125 -149.578125 Z M 59.953125 -149.578125 "/></g></g></g></g></g><g transform="matrix(1,0,0,1,267,435)"><g clip-path="url(#9ef132baaa)"><g style="fill:#000000;fill-opacity:1;"><g transform="translate(0.183974, 58.990957)"><path style="stroke:none" d="M 15.0625 -13.46875 C 16.519531 -12.007812 18.242188 -11.125 20.234375 -10.8125 C 22.234375 -10.507812 24.515625 -11.195312 27.078125 -12.875 L 28.46875 -10.75 L 14.40625 0 C 12.894531 -0.0390625 11.375 -0.644531 9.84375 -1.8125 C 8.320312 -2.988281 6.921875 -4.515625 5.640625 -6.390625 C 4.359375 -8.273438 3.304688 -10.320312 2.484375 -12.53125 C 1.671875 -14.75 1.226562 -16.929688 1.15625 -19.078125 C 1.09375 -21.222656 1.523438 -23.140625 2.453125 -24.828125 C 2.898438 -25.535156 3.675781 -26.539062 4.78125 -27.84375 C 5.882812 -29.144531 7.1875 -30.484375 8.6875 -31.859375 C 10.195312 -33.234375 11.722656 -34.394531 13.265625 -35.34375 C 14.816406 -36.289062 16.257812 -36.765625 17.59375 -36.765625 C 18.875 -36.765625 20.175781 -36.363281 21.5 -35.5625 C 22.832031 -34.769531 24.070312 -33.765625 25.21875 -32.546875 C 26.375 -31.335938 27.304688 -30.066406 28.015625 -28.734375 C 28.722656 -27.410156 29.078125 -26.195312 29.078125 -25.09375 Z M 11.34375 -29.203125 C 10.457031 -28.535156 10.023438 -27.492188 10.046875 -26.078125 C 10.078125 -24.671875 10.421875 -23.125 11.078125 -21.4375 C 11.742188 -19.757812 12.539062 -18.164062 13.46875 -16.65625 L 19.109375 -21.4375 C 18.847656 -22.457031 18.414062 -23.507812 17.8125 -24.59375 C 17.21875 -25.675781 16.546875 -26.632812 15.796875 -27.46875 C 15.046875 -28.3125 14.28125 -28.921875 13.5 -29.296875 C 12.726562 -29.679688 12.007812 -29.648438 11.34375 -29.203125 Z M 11.34375 -29.203125 "/></g></g><g style="fill:#000000;fill-opacity:1;"><g transform="translate(49.964022, 58.990957)"><path style="stroke:none" d="M 5.4375 -23.234375 L 25.15625 -23.234375 L 25.15625 -20.578125 L 19.78125 -16.46875 L 0.796875 -16.46875 L 0.796875 -18.71875 Z M 5.4375 -23.234375 "/></g></g><g style="fill:#000000;fill-opacity:1;"><g transform="translate(95.828271, 58.990957)"><path style="stroke:none" d="M 57.609375 -11.015625 L 59.140625 -8.953125 L 48.125 0 C 46.613281 -0.925781 45.359375 -2.351562 44.359375 -4.28125 C 43.367188 -6.207031 42.875 -8.648438 42.875 -11.609375 L 42.75 -39.03125 C 42.082031 -39.03125 41.4375 -38.519531 40.8125 -37.5 C 40.195312 -36.476562 39.578125 -35.140625 38.953125 -33.484375 C 38.335938 -31.828125 37.726562 -29.96875 37.125 -27.90625 C 36.53125 -25.851562 35.957031 -23.765625 35.40625 -21.640625 C 34.851562 -19.515625 34.332031 -17.523438 33.84375 -15.671875 C 34.644531 -14.648438 35.410156 -13.960938 36.140625 -13.609375 C 36.867188 -13.253906 37.519531 -13.34375 38.09375 -13.875 L 39.234375 -12.140625 L 29.609375 -3.453125 C 28.546875 -3.453125 27.472656 -4.148438 26.390625 -5.546875 C 25.304688 -6.941406 24.1875 -8.785156 23.03125 -11.078125 C 21.882812 -13.378906 20.675781 -15.925781 19.40625 -18.71875 C 18.144531 -21.507812 16.8125 -24.273438 15.40625 -27.015625 C 15.351562 -24.671875 15.347656 -22.378906 15.390625 -20.140625 C 15.441406 -17.910156 15.554688 -15.976562 15.734375 -14.34375 C 15.910156 -12.4375 16.25 -11.128906 16.75 -10.421875 C 17.257812 -9.710938 18.289062 -9.910156 19.84375 -11.015625 L 21.375 -8.953125 L 10.421875 0 C 8.921875 -0.925781 7.59375 -2.351562 6.4375 -4.28125 C 5.289062 -6.207031 4.71875 -8.648438 4.71875 -11.609375 L 4.71875 -33.578125 C 4.664062 -35.660156 4.273438 -36.976562 3.546875 -37.53125 C 2.816406 -38.082031 1.476562 -37.738281 -0.46875 -36.5 L -1.59375 -38.625 L 10.421875 -48.65625 C 11.921875 -48.65625 13.429688 -47.9375 14.953125 -46.5 C 16.484375 -45.0625 18 -43.179688 19.5 -40.859375 C 21.007812 -38.535156 22.484375 -36.007812 23.921875 -33.28125 C 25.359375 -30.5625 26.742188 -27.921875 28.078125 -25.359375 C 29.140625 -28.367188 30.390625 -31.265625 31.828125 -34.046875 C 33.265625 -36.835938 34.832031 -39.328125 36.53125 -41.515625 C 38.238281 -43.703125 40.066406 -45.4375 42.015625 -46.71875 C 43.960938 -48.007812 46 -48.65625 48.125 -48.65625 C 49.445312 -47.675781 50.492188 -46.675781 51.265625 -45.65625 C 52.046875 -44.644531 52.601562 -43.429688 52.9375 -42.015625 C 53.269531 -40.597656 53.410156 -38.828125 53.359375 -36.703125 L 53.4375 -14.34375 C 53.65625 -12.4375 54.003906 -11.128906 54.484375 -10.421875 C 54.972656 -9.710938 56.015625 -9.910156 57.609375 -11.015625 Z M 57.609375 -11.015625 "/></g></g><g style="fill:#000000;fill-opacity:1;"><g transform="translate(173.284275, 58.990957)"><path style="stroke:none" d="M 1.453125 -41.875 L 11.28125 -49.78125 L 14.53125 -45.265625 L 3.921875 -38.4375 Z M 19.71875 -10.953125 L 21.234375 -8.828125 L 10.28125 0 C 8.820312 -0.882812 7.59375 -2.289062 6.59375 -4.21875 C 5.601562 -6.144531 5.109375 -8.566406 5.109375 -11.484375 L 5.109375 -21.84375 C 5.023438 -23.875 4.550781 -25.164062 3.6875 -25.71875 C 2.820312 -26.269531 1.414062 -25.953125 -0.53125 -24.765625 L -1.59375 -26.875 L 10.28125 -36.765625 C 11.613281 -35.796875 12.664062 -34.800781 13.4375 -33.78125 C 14.21875 -32.769531 14.757812 -31.578125 15.0625 -30.203125 C 15.375 -28.828125 15.507812 -27.078125 15.46875 -24.953125 L 15.59375 -14.203125 C 15.550781 -12.523438 15.835938 -11.285156 16.453125 -10.484375 C 17.078125 -9.691406 18.164062 -9.847656 19.71875 -10.953125 Z M 19.71875 -10.953125 "/></g></g><g style="fill:#000000;fill-opacity:1;"><g transform="translate(212.44521, 58.990957)"><path style="stroke:none" d="M 19.71875 -10.953125 L 21.234375 -8.890625 L 10.28125 0 C 8.820312 -0.882812 7.582031 -2.300781 6.5625 -4.25 C 5.550781 -6.195312 5.046875 -8.628906 5.046875 -11.546875 L 5.046875 -38.828125 C 5.003906 -40.859375 4.550781 -42.160156 3.6875 -42.734375 C 2.820312 -43.316406 1.414062 -42.988281 -0.53125 -41.75 L -1.59375 -43.875 L 10.28125 -53.828125 C 11.613281 -52.859375 12.664062 -51.863281 13.4375 -50.84375 C 14.21875 -49.820312 14.769531 -48.601562 15.09375 -47.1875 C 15.425781 -45.769531 15.570312 -44 15.53125 -41.875 L 15.59375 -14.265625 C 15.550781 -12.546875 15.835938 -11.285156 16.453125 -10.484375 C 17.078125 -9.691406 18.164062 -9.847656 19.71875 -10.953125 Z M 19.71875 -10.953125 "/></g></g><g style="fill:#000000;fill-opacity:1;"><g transform="translate(252.800825, 58.990957)"><path style="stroke:none" d="M 15.0625 -13.46875 C 16.519531 -12.007812 18.242188 -11.125 20.234375 -10.8125 C 22.234375 -10.507812 24.515625 -11.195312 27.078125 -12.875 L 28.46875 -10.75 L 14.40625 0 C 12.894531 -0.0390625 11.375 -0.644531 9.84375 -1.8125 C 8.320312 -2.988281 6.921875 -4.515625 5.640625 -6.390625 C 4.359375 -8.273438 3.304688 -10.320312 2.484375 -12.53125 C 1.671875 -14.75 1.226562 -16.929688 1.15625 -19.078125 C 1.09375 -21.222656 1.523438 -23.140625 2.453125 -24.828125 C 2.898438 -25.535156 3.675781 -26.539062 4.78125 -27.84375 C 5.882812 -29.144531 7.1875 -30.484375 8.6875 -31.859375 C 10.195312 -33.234375 11.722656 -34.394531 13.265625 -35.34375 C 14.816406 -36.289062 16.257812 -36.765625 17.59375 -36.765625 C 18.875 -36.765625 20.175781 -36.363281 21.5 -35.5625 C 22.832031 -34.769531 24.070312 -33.765625 25.21875 -32.546875 C 26.375 -31.335938 27.304688 -30.066406 28.015625 -28.734375 C 28.722656 -27.410156 29.078125 -26.195312 29.078125 -25.09375 Z M 11.34375 -29.203125 C 10.457031 -28.535156 10.023438 -27.492188 10.046875 -26.078125 C 10.078125 -24.671875 10.421875 -23.125 11.078125 -21.4375 C 11.742188 -19.757812 12.539062 -18.164062 13.46875 -16.65625 L 19.109375 -21.4375 C 18.847656 -22.457031 18.414062 -23.507812 17.8125 -24.59375 C 17.21875 -25.675781 16.546875 -26.632812 15.796875 -27.46875 C 15.046875 -28.3125 14.28125 -28.921875 13.5 -29.296875 C 12.726562 -29.679688 12.007812 -29.648438 11.34375 -29.203125 Z M 11.34375 -29.203125 "/></g></g><g style="fill:#000000;fill-opacity:1;"><g transform="translate(302.580873, 58.990957)"><path style="stroke:none" d="M 8.625 -29.53125 C 9.289062 -28.425781 10.242188 -27.519531 11.484375 -26.8125 C 12.722656 -26.101562 14.113281 -25.460938 15.65625 -24.890625 C 17.207031 -24.316406 18.769531 -23.707031 20.34375 -23.0625 C 21.914062 -22.425781 23.375 -21.628906 24.71875 -20.671875 C 26.070312 -19.722656 27.15625 -18.503906 27.96875 -17.015625 C 28.789062 -15.535156 29.203125 -13.671875 29.203125 -11.421875 C 29.203125 -9.160156 28.710938 -7.285156 27.734375 -5.796875 C 26.765625 -4.316406 25.460938 -3.15625 23.828125 -2.3125 C 22.191406 -1.476562 20.378906 -0.882812 18.390625 -0.53125 C 16.398438 -0.175781 14.382812 0 12.34375 0 C 10.3125 0 8.34375 -0.226562 6.4375 -0.6875 C 4.53125 -1.15625 2.878906 -1.820312 1.484375 -2.6875 C 0.0976562 -3.550781 -0.925781 -4.601562 -1.59375 -5.84375 L 8.234375 -15 L 9.828125 -13.734375 C 9.335938 -13.253906 9.347656 -12.734375 9.859375 -12.171875 C 10.367188 -11.617188 11.1875 -11.078125 12.3125 -10.546875 C 13.4375 -10.015625 14.6875 -9.539062 16.0625 -9.125 C 17.4375 -8.707031 18.742188 -8.363281 19.984375 -8.09375 C 21.222656 -7.832031 22.171875 -7.703125 22.828125 -7.703125 C 22.921875 -8.628906 22.425781 -9.488281 21.34375 -10.28125 C 20.257812 -11.082031 18.851562 -11.878906 17.125 -12.671875 C 15.394531 -13.472656 13.554688 -14.289062 11.609375 -15.125 C 9.660156 -15.96875 7.800781 -16.851562 6.03125 -17.78125 C 4.269531 -18.71875 2.832031 -19.75 1.71875 -20.875 C 0.613281 -22 0.0625 -23.25 0.0625 -24.625 C 0.0625 -26.082031 0.46875 -27.429688 1.28125 -28.671875 C 2.101562 -29.910156 3.101562 -31.023438 4.28125 -32.015625 C 5.457031 -33.015625 6.640625 -33.867188 7.828125 -34.578125 C 9.023438 -35.285156 10.03125 -35.828125 10.84375 -36.203125 C 11.664062 -36.578125 12.078125 -36.765625 12.078125 -36.765625 C 13.765625 -36.765625 15.457031 -36.585938 17.15625 -36.234375 C 18.863281 -35.878906 20.523438 -35.515625 22.140625 -35.140625 C 23.753906 -34.765625 25.253906 -34.554688 26.640625 -34.515625 C 28.035156 -34.472656 29.265625 -34.757812 30.328125 -35.375 L 31.390625 -33.921875 L 20.25 -25.015625 C 19.1875 -25.015625 18.066406 -25.359375 16.890625 -26.046875 C 15.722656 -26.734375 14.582031 -27.472656 13.46875 -28.265625 C 12.363281 -29.066406 11.390625 -29.644531 10.546875 -30 C 9.710938 -30.351562 9.070312 -30.195312 8.625 -29.53125 Z M 8.625 -29.53125 "/></g></g></g></g></g></svg>