<svg xmlns="http://www.w3.org/2000/svg" xmlns:xlink="http://www.w3.org/1999/xlink" width="512" zoomAndPan="magnify" viewBox="0 0 384 383.999986" height="512" preserveAspectRatio="xMidYMid meet" version="1.2"><defs><clipPath id="09ab35859a"><rect x="0" width="65" y="0" height="127"/></clipPath><clipPath id="947d59e862"><rect x="0" width="169" y="0" height="39"/></clipPath></defs><g id="03c09089a2"><rect x="0" width="384" y="0" height="383.999986" style="fill:#ffffff;fill-opacity:1;stroke:none;"/><rect x="0" width="384" y="0" height="383.999986" style="fill:#ffffff;fill-opacity:1;stroke:none;"/><g transform="matrix(1,0,0,1,102,120)"><g clip-path="url(#09ab35859a)"><g style="fill:#007d0c;fill-opacity:1;"><g transform="translate(0.0913263, 98.400309)"><path style="stroke:none" d="M 53.4375 -76.390625 C 56.75 -74.109375 59.128906 -71.660156 60.578125 -69.046875 C 62.085938 -66.429688 62.945312 -63.160156 63.15625 -59.234375 L 63.15625 -57.46875 C 63.15625 -52.507812 62.019531 -47.722656 59.75 -43.109375 C 57.195312 -37.929688 53.40625 -33.347656 48.375 -29.359375 C 45.6875 -27.148438 43.101562 -25.320312 40.625 -23.875 C 38.144531 -22.425781 35.285156 -21.148438 32.046875 -20.046875 C 30.316406 -19.429688 28.457031 -18.847656 26.46875 -18.296875 C 24.394531 -17.742188 22.117188 -17.191406 19.640625 -16.640625 C 18.953125 -16.503906 18.675781 -16.265625 18.8125 -15.921875 C 19.019531 -15.640625 19.953125 -14.773438 21.609375 -13.328125 C 26.015625 -9.546875 30.21875 -7.445312 34.21875 -7.03125 C 38.144531 -6.613281 41.414062 -7.890625 44.03125 -10.859375 C 44.507812 -11.335938 45.023438 -12.023438 45.578125 -12.921875 C 46.128906 -13.816406 46.546875 -14.644531 46.828125 -15.40625 C 47.171875 -16.15625 47.476562 -16.773438 47.75 -17.265625 C 48.09375 -17.816406 48.300781 -18.09375 48.375 -18.09375 C 48.644531 -18.09375 49.195312 -17.816406 50.03125 -17.265625 C 50.925781 -16.773438 51.820312 -16.15625 52.71875 -15.40625 C 53.882812 -14.507812 54.503906 -13.644531 54.578125 -12.8125 C 54.578125 -12.0625 54.023438 -10.6875 52.921875 -8.6875 C 50.859375 -4.957031 48.101562 -2.679688 44.65625 -1.859375 C 41.132812 -0.960938 36.960938 -1.550781 32.140625 -3.625 C 30.898438 -4.164062 28.867188 -5.367188 26.046875 -7.234375 C 23.285156 -9.023438 21.148438 -10.578125 19.640625 -11.890625 C 19.015625 -12.503906 18.425781 -13.019531 17.875 -13.4375 C 17.394531 -13.78125 17.125 -13.953125 17.0625 -13.953125 C 16.914062 -13.953125 16.84375 -13.265625 16.84375 -11.890625 C 16.78125 -10.503906 16.75 -8.847656 16.75 -6.921875 C 16.75 -1.960938 17.09375 2.171875 17.78125 5.484375 C 18.539062 8.785156 19.710938 11.539062 21.296875 13.75 C 22.054688 14.851562 22.363281 15.609375 22.21875 16.015625 C 22.21875 16.160156 22.082031 16.234375 21.8125 16.234375 C 21.53125 16.234375 21.1875 16.128906 20.78125 15.921875 C 19.46875 15.296875 18.226562 14.46875 17.0625 13.4375 C 15.882812 12.332031 14.882812 11.054688 14.0625 9.609375 C 12.40625 6.710938 11.265625 3.71875 10.640625 0.625 C 9.953125 -2.476562 9.609375 -6.613281 9.609375 -11.78125 C 9.609375 -14.539062 9.539062 -16.4375 9.40625 -17.46875 C 9.332031 -18.570312 9.125 -19.46875 8.78125 -20.15625 C 8.507812 -20.570312 8.335938 -20.953125 8.265625 -21.296875 C 8.203125 -21.640625 8.238281 -21.84375 8.375 -21.90625 C 9.132812 -22.1875 9.6875 -22.738281 10.03125 -23.5625 C 10.375 -24.320312 10.75 -25.976562 11.15625 -28.53125 C 11.78125 -32.25 12.75 -36.519531 14.0625 -41.34375 C 15.300781 -46.164062 16.847656 -51.4375 18.703125 -57.15625 C 19.597656 -59.78125 20.320312 -62.054688 20.875 -63.984375 C 21.425781 -65.910156 21.671875 -66.910156 21.609375 -66.984375 C 21.460938 -67.117188 20.769531 -66.703125 19.53125 -65.734375 C 18.289062 -64.773438 16.984375 -63.601562 15.609375 -62.21875 C 14.640625 -61.320312 13.707031 -60.425781 12.8125 -59.53125 C 11.914062 -58.570312 11.160156 -57.710938 10.546875 -56.953125 C 9.710938 -55.847656 8.953125 -54.847656 8.265625 -53.953125 C 7.578125 -53.054688 7.195312 -52.539062 7.125 -52.40625 C 6.851562 -51.644531 5.613281 -51.882812 3.40625 -53.125 C 1.132812 -54.4375 0 -55.539062 0 -56.4375 C 0 -57.050781 0.894531 -58.5 2.6875 -60.78125 C 4.40625 -63.050781 6.234375 -65.082031 8.171875 -66.875 C 11.054688 -69.632812 14.222656 -72.015625 17.671875 -74.015625 C 21.117188 -76.078125 24.84375 -77.726562 28.84375 -78.96875 C 30.695312 -79.59375 32.242188 -80.003906 33.484375 -80.203125 C 34.722656 -80.347656 36.65625 -80.421875 39.28125 -80.421875 L 39.6875 -80.421875 C 42.925781 -80.421875 45.375 -80.175781 47.03125 -79.6875 C 48.820312 -79.207031 50.957031 -78.109375 53.4375 -76.390625 Z M 28.421875 -70.90625 C 27.316406 -70.351562 25.695312 -69.597656 23.5625 -68.640625 C 24.1875 -68.222656 25.050781 -67.632812 26.15625 -66.875 C 26.90625 -66.394531 27.554688 -65.878906 28.109375 -65.328125 C 28.660156 -64.847656 28.972656 -64.46875 29.046875 -64.1875 C 29.109375 -63.914062 29.039062 -63.257812 28.84375 -62.21875 C 28.5625 -61.125 28.210938 -59.953125 27.796875 -58.703125 C 26.421875 -54.640625 25.007812 -50.128906 23.5625 -45.171875 C 22.113281 -40.210938 20.910156 -35.835938 19.953125 -32.046875 C 19.398438 -30.046875 18.984375 -28.320312 18.703125 -26.875 C 18.359375 -25.425781 18.1875 -24.460938 18.1875 -23.984375 C 18.1875 -23.359375 18.738281 -23.148438 19.84375 -23.359375 C 20.945312 -23.566406 23.015625 -24.289062 26.046875 -25.53125 C 33.628906 -28.488281 40.003906 -32.585938 45.171875 -37.828125 C 50.410156 -43.066406 53.820312 -48.785156 55.40625 -54.984375 C 56.09375 -57.535156 56.332031 -60.429688 56.125 -63.671875 C 55.914062 -66.835938 55.363281 -69.351562 54.46875 -71.21875 C 53.851562 -72.53125 53.375 -73.359375 53.03125 -73.703125 C 52.613281 -74.046875 51.890625 -74.351562 50.859375 -74.625 C 50.171875 -74.832031 49.410156 -74.972656 48.578125 -75.046875 C 47.753906 -75.179688 46.894531 -75.25 46 -75.25 C 43.375 -75.25 40.546875 -74.867188 37.515625 -74.109375 C 34.421875 -73.347656 31.390625 -72.28125 28.421875 -70.90625 Z M 28.421875 -70.90625 "/></g></g></g></g><g transform="matrix(1,0,0,1,126,206)"><g clip-path="url(#947d59e862)"><g style="fill:#000000;fill-opacity:1;"><g transform="translate(0.664992, 28.188287)"><path style="stroke:none" d="M 7.140625 -6.390625 C 7.835938 -5.691406 8.65625 -5.269531 9.59375 -5.125 C 10.539062 -4.976562 11.625 -5.304688 12.84375 -6.109375 L 13.5 -5.09375 L 6.828125 0 C 6.117188 -0.0195312 5.398438 -0.304688 4.671875 -0.859375 C 3.953125 -1.421875 3.285156 -2.144531 2.671875 -3.03125 C 2.066406 -3.925781 1.566406 -4.894531 1.171875 -5.9375 C 0.785156 -6.988281 0.578125 -8.023438 0.546875 -9.046875 C 0.515625 -10.066406 0.722656 -10.972656 1.171875 -11.765625 C 1.378906 -12.097656 1.742188 -12.570312 2.265625 -13.1875 C 2.785156 -13.8125 3.398438 -14.445312 4.109375 -15.09375 C 4.828125 -15.75 5.550781 -16.300781 6.28125 -16.75 C 7.019531 -17.207031 7.707031 -17.4375 8.34375 -17.4375 C 8.945312 -17.4375 9.5625 -17.242188 10.1875 -16.859375 C 10.820312 -16.484375 11.410156 -16.003906 11.953125 -15.421875 C 12.503906 -14.847656 12.945312 -14.25 13.28125 -13.625 C 13.613281 -13 13.78125 -12.421875 13.78125 -11.890625 Z M 5.375 -13.84375 C 4.957031 -13.53125 4.753906 -13.035156 4.765625 -12.359375 C 4.773438 -11.691406 4.9375 -10.957031 5.25 -10.15625 C 5.570312 -9.363281 5.953125 -8.613281 6.390625 -7.90625 L 9.0625 -10.171875 C 8.9375 -10.648438 8.734375 -11.144531 8.453125 -11.65625 C 8.171875 -12.175781 7.847656 -12.632812 7.484375 -13.03125 C 7.128906 -13.425781 6.769531 -13.710938 6.40625 -13.890625 C 6.039062 -14.066406 5.695312 -14.050781 5.375 -13.84375 Z M 5.375 -13.84375 "/></g></g><g style="fill:#000000;fill-opacity:1;"><g transform="translate(24.26442, 28.188287)"><path style="stroke:none" d="M 2.578125 -11.015625 L 11.921875 -11.015625 L 11.921875 -9.75 L 9.375 -7.796875 L 0.375 -7.796875 L 0.375 -8.875 Z M 2.578125 -11.015625 "/></g></g><g style="fill:#000000;fill-opacity:1;"><g transform="translate(46.007469, 28.188287)"><path style="stroke:none" d="M 27.3125 -5.21875 L 28.03125 -4.25 L 22.8125 0 C 22.101562 -0.4375 21.507812 -1.113281 21.03125 -2.03125 C 20.5625 -2.945312 20.328125 -4.101562 20.328125 -5.5 L 20.265625 -18.5 C 19.953125 -18.5 19.644531 -18.257812 19.34375 -17.78125 C 19.050781 -17.300781 18.757812 -16.664062 18.46875 -15.875 C 18.175781 -15.09375 17.890625 -14.210938 17.609375 -13.234375 C 17.328125 -12.253906 17.050781 -11.257812 16.78125 -10.25 C 16.519531 -9.25 16.273438 -8.304688 16.046875 -7.421875 C 16.421875 -6.941406 16.78125 -6.617188 17.125 -6.453125 C 17.476562 -6.285156 17.789062 -6.328125 18.0625 -6.578125 L 18.59375 -5.765625 L 14.03125 -1.640625 C 13.53125 -1.640625 13.019531 -1.96875 12.5 -2.625 C 11.988281 -3.289062 11.457031 -4.164062 10.90625 -5.25 C 10.363281 -6.34375 9.796875 -7.550781 9.203125 -8.875 C 8.609375 -10.195312 7.972656 -11.507812 7.296875 -12.8125 C 7.273438 -11.695312 7.273438 -10.609375 7.296875 -9.546875 C 7.316406 -8.492188 7.367188 -7.578125 7.453125 -6.796875 C 7.535156 -5.890625 7.695312 -5.269531 7.9375 -4.9375 C 8.1875 -4.601562 8.675781 -4.695312 9.40625 -5.21875 L 10.140625 -4.25 L 4.9375 0 C 4.226562 -0.4375 3.597656 -1.113281 3.046875 -2.03125 C 2.503906 -2.945312 2.234375 -4.101562 2.234375 -5.5 L 2.234375 -15.921875 C 2.210938 -16.910156 2.03125 -17.535156 1.6875 -17.796875 C 1.34375 -18.054688 0.707031 -17.894531 -0.21875 -17.3125 L -0.75 -18.3125 L 4.9375 -23.0625 C 5.65625 -23.0625 6.375 -22.71875 7.09375 -22.03125 C 7.820312 -21.351562 8.539062 -20.460938 9.25 -19.359375 C 9.96875 -18.265625 10.664062 -17.070312 11.34375 -15.78125 C 12.03125 -14.488281 12.6875 -13.234375 13.3125 -12.015625 C 13.8125 -13.441406 14.398438 -14.816406 15.078125 -16.140625 C 15.765625 -17.460938 16.507812 -18.640625 17.3125 -19.671875 C 18.125 -20.710938 18.988281 -21.535156 19.90625 -22.140625 C 20.832031 -22.753906 21.800781 -23.0625 22.8125 -23.0625 C 23.445312 -22.601562 23.945312 -22.128906 24.3125 -21.640625 C 24.675781 -21.160156 24.9375 -20.582031 25.09375 -19.90625 C 25.25 -19.238281 25.316406 -18.40625 25.296875 -17.40625 L 25.328125 -6.796875 C 25.429688 -5.890625 25.597656 -5.269531 25.828125 -4.9375 C 26.066406 -4.601562 26.5625 -4.695312 27.3125 -5.21875 Z M 27.3125 -5.21875 "/></g></g><g style="fill:#000000;fill-opacity:1;"><g transform="translate(82.727349, 28.188287)"><path style="stroke:none" d="M 0.6875 -19.859375 L 5.34375 -23.609375 L 6.890625 -21.46875 L 1.859375 -18.21875 Z M 9.34375 -5.1875 L 10.0625 -4.1875 L 4.875 0 C 4.1875 -0.414062 3.601562 -1.078125 3.125 -1.984375 C 2.65625 -2.898438 2.421875 -4.050781 2.421875 -5.4375 L 2.421875 -10.359375 C 2.378906 -11.316406 2.15625 -11.925781 1.75 -12.1875 C 1.34375 -12.457031 0.675781 -12.304688 -0.25 -11.734375 L -0.75 -12.75 L 4.875 -17.4375 C 5.507812 -16.96875 6.007812 -16.492188 6.375 -16.015625 C 6.738281 -15.535156 6.992188 -14.96875 7.140625 -14.3125 C 7.285156 -13.664062 7.347656 -12.835938 7.328125 -11.828125 L 7.390625 -6.734375 C 7.367188 -5.929688 7.503906 -5.34375 7.796875 -4.96875 C 8.097656 -4.59375 8.613281 -4.664062 9.34375 -5.1875 Z M 9.34375 -5.1875 "/></g></g><g style="fill:#000000;fill-opacity:1;"><g transform="translate(101.292531, 28.188287)"><path style="stroke:none" d="M 9.34375 -5.1875 L 10.0625 -4.21875 L 4.875 0 C 4.1875 -0.414062 3.597656 -1.085938 3.109375 -2.015625 C 2.628906 -2.941406 2.390625 -4.09375 2.390625 -5.46875 L 2.390625 -18.40625 C 2.367188 -19.375 2.15625 -19.992188 1.75 -20.265625 C 1.34375 -20.535156 0.675781 -20.378906 -0.25 -19.796875 L -0.75 -20.796875 L 4.875 -25.515625 C 5.507812 -25.054688 6.007812 -24.582031 6.375 -24.09375 C 6.738281 -23.613281 7 -23.039062 7.15625 -22.375 C 7.3125 -21.707031 7.378906 -20.867188 7.359375 -19.859375 L 7.390625 -6.765625 C 7.367188 -5.941406 7.503906 -5.34375 7.796875 -4.96875 C 8.097656 -4.59375 8.613281 -4.664062 9.34375 -5.1875 Z M 9.34375 -5.1875 "/></g></g><g style="fill:#000000;fill-opacity:1;"><g transform="translate(120.42408, 28.188287)"><path style="stroke:none" d="M 7.140625 -6.390625 C 7.835938 -5.691406 8.65625 -5.269531 9.59375 -5.125 C 10.539062 -4.976562 11.625 -5.304688 12.84375 -6.109375 L 13.5 -5.09375 L 6.828125 0 C 6.117188 -0.0195312 5.398438 -0.304688 4.671875 -0.859375 C 3.953125 -1.421875 3.285156 -2.144531 2.671875 -3.03125 C 2.066406 -3.925781 1.566406 -4.894531 1.171875 -5.9375 C 0.785156 -6.988281 0.578125 -8.023438 0.546875 -9.046875 C 0.515625 -10.066406 0.722656 -10.972656 1.171875 -11.765625 C 1.378906 -12.097656 1.742188 -12.570312 2.265625 -13.1875 C 2.785156 -13.8125 3.398438 -14.445312 4.109375 -15.09375 C 4.828125 -15.75 5.550781 -16.300781 6.28125 -16.75 C 7.019531 -17.207031 7.707031 -17.4375 8.34375 -17.4375 C 8.945312 -17.4375 9.5625 -17.242188 10.1875 -16.859375 C 10.820312 -16.484375 11.410156 -16.003906 11.953125 -15.421875 C 12.503906 -14.847656 12.945312 -14.25 13.28125 -13.625 C 13.613281 -13 13.78125 -12.421875 13.78125 -11.890625 Z M 5.375 -13.84375 C 4.957031 -13.53125 4.753906 -13.035156 4.765625 -12.359375 C 4.773438 -11.691406 4.9375 -10.957031 5.25 -10.15625 C 5.570312 -9.363281 5.953125 -8.613281 6.390625 -7.90625 L 9.0625 -10.171875 C 8.9375 -10.648438 8.734375 -11.144531 8.453125 -11.65625 C 8.171875 -12.175781 7.847656 -12.632812 7.484375 -13.03125 C 7.128906 -13.425781 6.769531 -13.710938 6.40625 -13.890625 C 6.039062 -14.066406 5.695312 -14.050781 5.375 -13.84375 Z M 5.375 -13.84375 "/></g></g><g style="fill:#000000;fill-opacity:1;"><g transform="translate(144.023507, 28.188287)"><path style="stroke:none" d="M 4.09375 -14 C 4.40625 -13.476562 4.851562 -13.046875 5.4375 -12.703125 C 6.03125 -12.367188 6.691406 -12.066406 7.421875 -11.796875 C 8.160156 -11.523438 8.898438 -11.238281 9.640625 -10.9375 C 10.390625 -10.632812 11.082031 -10.253906 11.71875 -9.796875 C 12.363281 -9.347656 12.878906 -8.769531 13.265625 -8.0625 C 13.648438 -7.363281 13.84375 -6.476562 13.84375 -5.40625 C 13.84375 -4.34375 13.613281 -3.457031 13.15625 -2.75 C 12.695312 -2.050781 12.078125 -1.5 11.296875 -1.09375 C 10.523438 -0.695312 9.664062 -0.414062 8.71875 -0.25 C 7.769531 -0.0820312 6.816406 0 5.859375 0 C 4.890625 0 3.953125 -0.109375 3.046875 -0.328125 C 2.148438 -0.546875 1.367188 -0.859375 0.703125 -1.265625 C 0.046875 -1.679688 -0.4375 -2.179688 -0.75 -2.765625 L 3.90625 -7.109375 L 4.65625 -6.515625 C 4.425781 -6.285156 4.429688 -6.035156 4.671875 -5.765625 C 4.910156 -5.503906 5.296875 -5.25 5.828125 -5 C 6.367188 -4.75 6.960938 -4.523438 7.609375 -4.328125 C 8.265625 -4.128906 8.882812 -3.96875 9.46875 -3.84375 C 10.0625 -3.71875 10.515625 -3.65625 10.828125 -3.65625 C 10.867188 -4.09375 10.628906 -4.5 10.109375 -4.875 C 9.597656 -5.25 8.929688 -5.625 8.109375 -6 C 7.296875 -6.382812 6.425781 -6.773438 5.5 -7.171875 C 4.582031 -7.566406 3.703125 -7.984375 2.859375 -8.421875 C 2.023438 -8.867188 1.34375 -9.359375 0.8125 -9.890625 C 0.289062 -10.429688 0.03125 -11.023438 0.03125 -11.671875 C 0.03125 -12.367188 0.222656 -13.007812 0.609375 -13.59375 C 1.003906 -14.175781 1.476562 -14.703125 2.03125 -15.171875 C 2.582031 -15.648438 3.140625 -16.054688 3.703125 -16.390625 C 4.273438 -16.734375 4.753906 -16.992188 5.140625 -17.171875 C 5.535156 -17.347656 5.734375 -17.4375 5.734375 -17.4375 C 6.523438 -17.4375 7.320312 -17.351562 8.125 -17.1875 C 8.9375 -17.019531 9.722656 -16.84375 10.484375 -16.65625 C 11.253906 -16.476562 11.96875 -16.378906 12.625 -16.359375 C 13.289062 -16.335938 13.875 -16.472656 14.375 -16.765625 L 14.890625 -16.078125 L 9.59375 -11.859375 C 9.09375 -11.859375 8.5625 -12.019531 8 -12.34375 C 7.445312 -12.675781 6.90625 -13.03125 6.375 -13.40625 C 5.851562 -13.78125 5.394531 -14.050781 5 -14.21875 C 4.601562 -14.382812 4.300781 -14.3125 4.09375 -14 Z M 4.09375 -14 "/></g></g></g></g></g></svg>