<svg xmlns="http://www.w3.org/2000/svg" xmlns:xlink="http://www.w3.org/1999/xlink" width="512" zoomAndPan="magnify" viewBox="0 0 384 383.999986" height="512" preserveAspectRatio="xMidYMid meet" version="1.2"><defs><clipPath id="15cdfaeaae"><path d="M 0.320312 21 L 79 21 L 79 141 L 0.320312 141 Z M 0.320312 21 "/></clipPath><clipPath id="4701d7cd03"><rect x="0" width="81" y="0" height="155"/></clipPath><clipPath id="f40b32aeee"><rect x="0" width="119" y="0" height="59"/></clipPath><clipPath id="d32e65e5dd"><rect x="0" width="23" y="0" height="58"/></clipPath></defs><g id="a7a23105e6"><rect x="0" width="384" y="0" height="383.999986" style="fill:#ffffff;fill-opacity:1;stroke:none;"/><rect x="0" width="384" y="0" height="383.999986" style="fill:#ffffff;fill-opacity:1;stroke:none;"/><g transform="matrix(1,0,0,1,76,114)"><g clip-path="url(#4701d7cd03)"><g clip-rule="nonzero" clip-path="url(#15cdfaeaae)"><g style="fill:#007d0c;fill-opacity:1;"><g transform="translate(0.514771, 120.660391)"><path style="stroke:none" d="M 65.96875 -94.296875 C 70.050781 -91.484375 72.984375 -88.460938 74.765625 -85.234375 C 76.640625 -82.003906 77.703125 -77.960938 77.953125 -73.109375 L 77.953125 -70.9375 C 77.953125 -64.8125 76.550781 -58.898438 73.75 -53.203125 C 70.601562 -46.828125 65.925781 -41.171875 59.71875 -36.234375 C 56.394531 -33.515625 53.203125 -31.257812 50.140625 -29.46875 C 47.078125 -27.6875 43.546875 -26.113281 39.546875 -24.75 C 37.421875 -23.988281 35.128906 -23.265625 32.671875 -22.578125 C 30.117188 -21.898438 27.3125 -21.222656 24.25 -20.546875 C 23.394531 -20.367188 23.050781 -20.070312 23.21875 -19.65625 C 23.476562 -19.3125 24.628906 -18.242188 26.671875 -16.453125 C 32.109375 -11.773438 37.296875 -9.179688 42.234375 -8.671875 C 47.078125 -8.160156 51.117188 -9.734375 54.359375 -13.390625 C 54.953125 -13.992188 55.585938 -14.847656 56.265625 -15.953125 C 56.953125 -17.054688 57.460938 -18.078125 57.796875 -19.015625 C 58.222656 -19.953125 58.609375 -20.71875 58.953125 -21.3125 C 59.378906 -21.988281 59.632812 -22.328125 59.71875 -22.328125 C 60.050781 -22.328125 60.726562 -21.988281 61.75 -21.3125 C 62.863281 -20.71875 63.972656 -19.953125 65.078125 -19.015625 C 66.515625 -17.910156 67.28125 -16.847656 67.375 -15.828125 C 67.375 -14.890625 66.691406 -13.1875 65.328125 -10.71875 C 62.773438 -6.125 59.375 -3.316406 55.125 -2.296875 C 50.78125 -1.191406 45.632812 -1.914062 39.6875 -4.46875 C 38.15625 -5.144531 35.644531 -6.632812 32.15625 -8.9375 C 28.75 -11.144531 26.113281 -13.054688 24.25 -14.671875 C 23.476562 -15.441406 22.753906 -16.082031 22.078125 -16.59375 C 21.484375 -17.007812 21.140625 -17.21875 21.046875 -17.21875 C 20.878906 -17.21875 20.796875 -16.367188 20.796875 -14.671875 C 20.710938 -12.972656 20.671875 -10.929688 20.671875 -8.546875 C 20.671875 -2.421875 21.097656 2.679688 21.953125 6.765625 C 22.878906 10.847656 24.320312 14.25 26.28125 16.96875 C 27.21875 18.332031 27.601562 19.269531 27.4375 19.78125 C 27.4375 19.945312 27.265625 20.03125 26.921875 20.03125 C 26.578125 20.03125 26.148438 19.90625 25.640625 19.65625 C 24.023438 18.882812 22.492188 17.863281 21.046875 16.59375 C 19.609375 15.226562 18.378906 13.648438 17.359375 11.859375 C 15.316406 8.285156 13.910156 4.585938 13.140625 0.765625 C 12.285156 -3.054688 11.859375 -8.160156 11.859375 -14.546875 C 11.859375 -17.953125 11.773438 -20.289062 11.609375 -21.5625 C 11.523438 -22.925781 11.269531 -24.03125 10.84375 -24.875 C 10.5 -25.382812 10.285156 -25.851562 10.203125 -26.28125 C 10.117188 -26.707031 10.160156 -26.960938 10.328125 -27.046875 C 11.265625 -27.390625 11.945312 -28.070312 12.375 -29.09375 C 12.800781 -30.03125 13.269531 -32.070312 13.78125 -35.21875 C 14.539062 -39.8125 15.734375 -45.082031 17.359375 -51.03125 C 18.890625 -56.988281 20.800781 -63.5 23.09375 -70.5625 C 24.195312 -73.789062 25.09375 -76.597656 25.78125 -78.984375 C 26.457031 -81.359375 26.753906 -82.59375 26.671875 -82.6875 C 26.492188 -82.851562 25.640625 -82.34375 24.109375 -81.15625 C 22.578125 -79.957031 20.960938 -78.507812 19.265625 -76.8125 C 18.078125 -75.707031 16.929688 -74.601562 15.828125 -73.5 C 14.710938 -72.300781 13.773438 -71.234375 13.015625 -70.296875 C 11.992188 -68.941406 11.054688 -67.710938 10.203125 -66.609375 C 9.359375 -65.503906 8.890625 -64.863281 8.796875 -64.6875 C 8.460938 -63.75 6.929688 -64.046875 4.203125 -65.578125 C 1.398438 -67.191406 0 -68.554688 0 -69.671875 C 0 -70.429688 1.101562 -72.21875 3.3125 -75.03125 C 5.4375 -77.832031 7.691406 -80.335938 10.078125 -82.546875 C 13.648438 -85.953125 17.5625 -88.890625 21.8125 -91.359375 C 26.070312 -93.910156 30.664062 -95.953125 35.59375 -97.484375 C 37.894531 -98.242188 39.8125 -98.753906 41.34375 -99.015625 C 42.875 -99.179688 45.253906 -99.265625 48.484375 -99.265625 L 49 -99.265625 C 53 -99.265625 56.019531 -98.96875 58.0625 -98.375 C 60.269531 -97.78125 62.90625 -96.421875 65.96875 -94.296875 Z M 35.09375 -87.53125 C 33.726562 -86.851562 31.726562 -85.914062 29.09375 -84.71875 C 29.851562 -84.207031 30.914062 -83.484375 32.28125 -82.546875 C 33.21875 -81.953125 34.023438 -81.316406 34.703125 -80.640625 C 35.378906 -80.046875 35.765625 -79.578125 35.859375 -79.234375 C 35.941406 -78.890625 35.851562 -78.082031 35.59375 -76.8125 C 35.257812 -75.445312 34.835938 -74 34.328125 -72.46875 C 32.617188 -67.457031 30.875 -61.890625 29.09375 -55.765625 C 27.300781 -49.640625 25.8125 -44.234375 24.625 -39.546875 C 23.945312 -37.085938 23.4375 -34.960938 23.09375 -33.171875 C 22.664062 -31.390625 22.453125 -30.203125 22.453125 -29.609375 C 22.453125 -28.835938 23.132812 -28.582031 24.5 -28.84375 C 25.863281 -29.09375 28.414062 -29.984375 32.15625 -31.515625 C 41.507812 -35.171875 49.378906 -40.234375 55.765625 -46.703125 C 62.222656 -53.160156 66.429688 -60.21875 68.390625 -67.875 C 69.242188 -71.019531 69.539062 -74.59375 69.28125 -78.59375 C 69.03125 -82.507812 68.347656 -85.613281 67.234375 -87.90625 C 66.472656 -89.53125 65.878906 -90.550781 65.453125 -90.96875 C 64.941406 -91.394531 64.050781 -91.78125 62.78125 -92.125 C 61.925781 -92.375 60.988281 -92.546875 59.96875 -92.640625 C 58.945312 -92.804688 57.882812 -92.890625 56.78125 -92.890625 C 53.550781 -92.890625 50.0625 -92.421875 46.3125 -91.484375 C 42.488281 -90.546875 38.75 -89.226562 35.09375 -87.53125 Z M 35.09375 -87.53125 "/></g></g></g></g></g><g transform="matrix(1,0,0,1,186,174)"><g clip-path="url(#f40b32aeee)"><g style="fill:#000000;fill-opacity:1;"><g transform="translate(2.974381, 43.454632)"><path style="stroke:none" d="M 40.859375 -7.5625 L 41.921875 -6.109375 L 34.09375 0.1875 C 33.019531 -0.46875 32.132812 -1.476562 31.4375 -2.84375 C 30.75 -4.21875 30.410156 -5.957031 30.421875 -8.0625 L 30.4375 -27.46875 C 29.96875 -27.46875 29.507812 -27.109375 29.0625 -26.390625 C 28.613281 -25.679688 28.164062 -24.738281 27.71875 -23.5625 C 27.28125 -22.382812 26.84375 -21.066406 26.40625 -19.609375 C 25.976562 -18.160156 25.566406 -16.6875 25.171875 -15.1875 C 24.773438 -13.6875 24.398438 -12.273438 24.046875 -10.953125 C 24.609375 -10.234375 25.144531 -9.75 25.65625 -9.5 C 26.164062 -9.25 26.628906 -9.304688 27.046875 -9.671875 L 27.828125 -8.453125 L 20.984375 -2.3125 C 20.234375 -2.320312 19.472656 -2.820312 18.703125 -3.8125 C 17.941406 -4.8125 17.160156 -6.128906 16.359375 -7.765625 C 15.554688 -9.398438 14.710938 -11.207031 13.828125 -13.1875 C 12.941406 -15.164062 12.003906 -17.128906 11.015625 -19.078125 C 10.972656 -17.410156 10.960938 -15.785156 10.984375 -14.203125 C 11.003906 -12.617188 11.078125 -11.25 11.203125 -10.09375 C 11.316406 -8.75 11.550781 -7.820312 11.90625 -7.3125 C 12.257812 -6.8125 12.992188 -6.945312 14.109375 -7.71875 L 15.171875 -6.265625 L 7.375 0.046875 C 6.3125 -0.617188 5.378906 -1.632812 4.578125 -3 C 3.773438 -4.375 3.378906 -6.113281 3.390625 -8.21875 L 3.484375 -23.78125 C 3.453125 -25.25 3.175781 -26.175781 2.65625 -26.5625 C 2.144531 -26.957031 1.195312 -26.722656 -0.1875 -25.859375 L -0.96875 -27.359375 L 7.5625 -34.421875 C 8.632812 -34.421875 9.707031 -33.90625 10.78125 -32.875 C 11.851562 -31.851562 12.921875 -30.515625 13.984375 -28.859375 C 15.046875 -27.203125 16.078125 -25.40625 17.078125 -23.46875 C 18.085938 -21.539062 19.054688 -19.664062 19.984375 -17.84375 C 20.753906 -19.96875 21.65625 -22.015625 22.6875 -23.984375 C 23.71875 -25.953125 24.835938 -27.707031 26.046875 -29.25 C 27.253906 -30.800781 28.550781 -32.03125 29.9375 -32.9375 C 31.320312 -33.84375 32.769531 -34.289062 34.28125 -34.28125 C 35.21875 -33.570312 35.957031 -32.859375 36.5 -32.140625 C 37.039062 -31.421875 37.425781 -30.554688 37.65625 -29.546875 C 37.882812 -28.535156 37.976562 -27.28125 37.9375 -25.78125 L 37.90625 -9.9375 C 38.050781 -8.59375 38.289062 -7.664062 38.625 -7.15625 C 38.96875 -6.65625 39.710938 -6.789062 40.859375 -7.5625 Z M 40.859375 -7.5625 "/></g></g><g style="fill:#000000;fill-opacity:1;"><g transform="translate(44.108518, 43.656887)"><path style="stroke:none" d="M 1.078125 -29.671875 L 8.046875 -35.25 L 10.34375 -32.046875 L 2.8125 -27.21875 Z M 13.984375 -7.734375 L 15.0625 -6.234375 L 7.28125 0.015625 C 6.25 -0.617188 5.378906 -1.617188 4.671875 -2.984375 C 3.972656 -4.347656 3.628906 -6.066406 3.640625 -8.140625 L 3.640625 -15.46875 C 3.585938 -16.90625 3.253906 -17.820312 2.640625 -18.21875 C 2.023438 -18.613281 1.03125 -18.382812 -0.34375 -17.53125 L -1.09375 -19.046875 L 7.3125 -26.03125 C 8.257812 -25.34375 9.003906 -24.632812 9.546875 -23.90625 C 10.097656 -23.1875 10.484375 -22.34375 10.703125 -21.375 C 10.921875 -20.40625 11.015625 -19.164062 10.984375 -17.65625 L 11.0625 -10.046875 C 11.03125 -8.859375 11.234375 -7.976562 11.671875 -7.40625 C 12.109375 -6.84375 12.878906 -6.953125 13.984375 -7.734375 Z M 13.984375 -7.734375 "/></g></g><g style="fill:#000000;fill-opacity:1;"><g transform="translate(58.94377, 43.676597)"><path style="stroke:none" d="M 13.96875 -7.765625 L 15.046875 -6.3125 L 7.28125 0 C 6.25 -0.625 5.375 -1.625 4.65625 -3 C 3.9375 -4.382812 3.578125 -6.113281 3.578125 -8.1875 L 3.546875 -27.5 C 3.515625 -28.945312 3.191406 -29.875 2.578125 -30.28125 C 1.960938 -30.6875 0.96875 -30.453125 -0.40625 -29.578125 L -1.15625 -31.078125 L 7.25 -38.125 C 8.195312 -37.445312 8.941406 -36.75 9.484375 -36.03125 C 10.035156 -35.3125 10.425781 -34.445312 10.65625 -33.4375 C 10.894531 -32.4375 11 -31.1875 10.96875 -29.6875 L 11.03125 -10.125 C 11.007812 -8.90625 11.21875 -8.007812 11.65625 -7.4375 C 12.09375 -6.875 12.863281 -6.984375 13.96875 -7.765625 Z M 13.96875 -7.765625 "/></g></g><g style="fill:#000000;fill-opacity:1;"><g transform="translate(73.785913, 43.667306)"><path style="stroke:none" d="M 10.640625 -9.59375 C 11.671875 -8.5625 12.890625 -7.9375 14.296875 -7.71875 C 15.710938 -7.5 17.332031 -7.988281 19.15625 -9.1875 L 20.140625 -7.6875 L 10.203125 -0.03125 C 9.140625 -0.0625 8.0625 -0.488281 6.96875 -1.3125 C 5.882812 -2.132812 4.882812 -3.210938 3.96875 -4.546875 C 3.0625 -5.878906 2.3125 -7.328125 1.71875 -8.890625 C 1.132812 -10.453125 0.816406 -11.992188 0.765625 -13.515625 C 0.710938 -15.035156 1.015625 -16.390625 1.671875 -17.578125 C 1.984375 -18.097656 2.53125 -18.816406 3.3125 -19.734375 C 4.09375 -20.660156 5.007812 -21.613281 6.0625 -22.59375 C 7.125 -23.570312 8.203125 -24.398438 9.296875 -25.078125 C 10.398438 -25.753906 11.421875 -26.09375 12.359375 -26.09375 C 13.273438 -26.09375 14.203125 -25.8125 15.140625 -25.25 C 16.078125 -24.695312 16.957031 -23.988281 17.78125 -23.125 C 18.601562 -22.257812 19.265625 -21.359375 19.765625 -20.421875 C 20.273438 -19.492188 20.53125 -18.632812 20.53125 -17.84375 Z M 7.96875 -20.71875 C 7.332031 -20.25 7.023438 -19.507812 7.046875 -18.5 C 7.066406 -17.5 7.316406 -16.40625 7.796875 -15.21875 C 8.273438 -14.03125 8.84375 -12.898438 9.5 -11.828125 L 13.484375 -15.234375 C 13.296875 -15.953125 12.988281 -16.695312 12.5625 -17.46875 C 12.132812 -18.238281 11.648438 -18.914062 11.109375 -19.5 C 10.578125 -20.09375 10.035156 -20.519531 9.484375 -20.78125 C 8.941406 -21.050781 8.4375 -21.03125 7.96875 -20.71875 Z M 7.96875 -20.71875 "/></g></g><g style="fill:#000000;fill-opacity:1;"><g transform="translate(95.309756, 43.58857)"><path style="stroke:none" d="M 5.96875 -20.96875 C 6.4375 -20.1875 7.113281 -19.546875 8 -19.046875 C 8.882812 -18.546875 9.875 -18.097656 10.96875 -17.703125 C 12.0625 -17.304688 13.164062 -16.882812 14.28125 -16.4375 C 15.40625 -15.988281 16.445312 -15.429688 17.40625 -14.765625 C 18.375 -14.109375 19.148438 -13.253906 19.734375 -12.203125 C 20.316406 -11.148438 20.613281 -9.828125 20.625 -8.234375 C 20.632812 -6.628906 20.300781 -5.296875 19.625 -4.234375 C 18.945312 -3.179688 18.03125 -2.351562 16.875 -1.75 C 15.71875 -1.15625 14.429688 -0.726562 13.015625 -0.46875 C 11.609375 -0.207031 10.1875 -0.0703125 8.75 -0.0625 C 7.300781 -0.0507812 5.898438 -0.203125 4.546875 -0.515625 C 3.203125 -0.835938 2.035156 -1.300781 1.046875 -1.90625 C 0.0546875 -2.519531 -0.675781 -3.257812 -1.15625 -4.125 L 5.75 -10.671875 L 6.890625 -9.78125 C 6.546875 -9.4375 6.550781 -9.066406 6.90625 -8.671875 C 7.269531 -8.285156 7.851562 -7.90625 8.65625 -7.53125 C 9.46875 -7.15625 10.359375 -6.820312 11.328125 -6.53125 C 12.296875 -6.25 13.222656 -6.015625 14.109375 -5.828125 C 14.992188 -5.648438 15.671875 -5.5625 16.140625 -5.5625 C 16.191406 -6.21875 15.832031 -6.828125 15.0625 -7.390625 C 14.289062 -7.953125 13.289062 -8.507812 12.0625 -9.0625 C 10.84375 -9.625 9.539062 -10.195312 8.15625 -10.78125 C 6.769531 -11.363281 5.445312 -11.976562 4.1875 -12.625 C 2.925781 -13.28125 1.898438 -14.003906 1.109375 -14.796875 C 0.328125 -15.585938 -0.0664062 -16.46875 -0.078125 -17.4375 C -0.0859375 -18.476562 0.191406 -19.4375 0.765625 -20.3125 C 1.335938 -21.195312 2.035156 -21.992188 2.859375 -22.703125 C 3.691406 -23.421875 4.53125 -24.03125 5.375 -24.53125 C 6.21875 -25.039062 6.925781 -25.429688 7.5 -25.703125 C 8.082031 -25.972656 8.375 -26.109375 8.375 -26.109375 C 9.5625 -26.117188 10.757812 -26 11.96875 -25.75 C 13.1875 -25.507812 14.363281 -25.257812 15.5 -25 C 16.644531 -24.75 17.710938 -24.609375 18.703125 -24.578125 C 19.691406 -24.554688 20.5625 -24.769531 21.3125 -25.21875 L 22.0625 -24.1875 L 14.21875 -17.8125 C 13.46875 -17.8125 12.671875 -18.050781 11.828125 -18.53125 C 10.992188 -19.019531 10.1875 -19.539062 9.40625 -20.09375 C 8.625 -20.65625 7.929688 -21.054688 7.328125 -21.296875 C 6.722656 -21.546875 6.269531 -21.4375 5.96875 -20.96875 Z M 5.96875 -20.96875 "/></g></g></g></g><g transform="matrix(1,0,0,1,142,174)"><g clip-path="url(#d32e65e5dd)"><g style="fill:#000000;fill-opacity:1;"><g transform="translate(1.112604, 43.455303)"><path style="stroke:none" d="M 10.671875 -9.546875 C 11.703125 -8.515625 12.921875 -7.882812 14.328125 -7.65625 C 15.742188 -7.4375 17.363281 -7.925781 19.1875 -9.125 L 20.171875 -7.609375 L 10.203125 0 C 9.140625 -0.03125 8.066406 -0.457031 6.984375 -1.28125 C 5.898438 -2.113281 4.90625 -3.195312 4 -4.53125 C 3.09375 -5.863281 2.347656 -7.3125 1.765625 -8.875 C 1.179688 -10.445312 0.863281 -11.992188 0.8125 -13.515625 C 0.769531 -15.035156 1.078125 -16.390625 1.734375 -17.578125 C 2.046875 -18.085938 2.59375 -18.800781 3.375 -19.71875 C 4.164062 -20.644531 5.09375 -21.59375 6.15625 -22.5625 C 7.21875 -23.539062 8.296875 -24.363281 9.390625 -25.03125 C 10.492188 -25.707031 11.515625 -26.046875 12.453125 -26.046875 C 13.367188 -26.046875 14.296875 -25.765625 15.234375 -25.203125 C 16.171875 -24.640625 17.046875 -23.925781 17.859375 -23.0625 C 18.679688 -22.195312 19.34375 -21.296875 19.84375 -20.359375 C 20.34375 -19.421875 20.59375 -18.554688 20.59375 -17.765625 Z M 8.046875 -20.6875 C 7.410156 -20.21875 7.097656 -19.476562 7.109375 -18.46875 C 7.128906 -17.46875 7.375 -16.375 7.84375 -15.1875 C 8.320312 -14 8.890625 -12.867188 9.546875 -11.796875 L 13.546875 -15.1875 C 13.359375 -15.90625 13.050781 -16.648438 12.625 -17.421875 C 12.195312 -18.191406 11.71875 -18.875 11.1875 -19.46875 C 10.65625 -20.0625 10.113281 -20.488281 9.5625 -20.75 C 9.019531 -21.019531 8.515625 -21 8.046875 -20.6875 Z M 8.046875 -20.6875 "/></g></g></g></g><path style="fill:none;stroke-width:7;stroke-linecap:round;stroke-linejoin:miter;stroke:#000000;stroke-opacity:1;stroke-miterlimit:4;" d="M 3.501855 3.50128 L 214.251872 3.50128 " transform="matrix(0.75,-0.000000000000000372,0.000000000000000372,0.75,153.693921,222.100602)"/><path style="fill:none;stroke-width:13;stroke-linecap:round;stroke-linejoin:miter;stroke:#000000;stroke-opacity:1;stroke-miterlimit:4;" d="M 6.601475 6.499787 C 11.565017 6.499787 16.533767 6.499787 21.497309 6.499787 " transform="matrix(0.75,0,0,0.75,165.908269,199.078285)"/><path style=" stroke:none;fill-rule:nonzero;fill:#ffd014;fill-opacity:1;" d="M 168.796875 202.96875 L 173.296875 202.96875 L 173.296875 204.46875 L 168.796875 204.46875 Z M 174.796875 202.96875 L 179.296875 202.96875 L 179.296875 204.46875 L 174.796875 204.46875 Z M 180.796875 202.96875 L 185.296875 202.96875 L 185.296875 204.46875 L 180.796875 204.46875 Z M 186.796875 202.96875 L 186.902344 202.96875 L 186.902344 204.46875 L 186.796875 204.46875 Z M 186.796875 202.96875 "/><path style="fill:none;stroke-width:1;stroke-linecap:butt;stroke-linejoin:miter;stroke:#ffffff;stroke-opacity:1;stroke-miterlimit:4;" d="M 0.000247065 0.501771 C 8.714139 0.500126 17.428032 0.498481 26.141972 0.502044 " transform="matrix(0.749969,0.00686577,-0.00686577,0.749969,167.300135,199.783842)"/><path style="fill:none;stroke-width:1;stroke-linecap:butt;stroke-linejoin:miter;stroke:#ffffff;stroke-opacity:1;stroke-miterlimit:4;" d="M 0.00152942 0.499794 C 8.715422 0.498149 17.429362 0.501712 26.143254 0.500067 " transform="matrix(0.749969,0.00686577,-0.00686577,0.749969,166.002284,206.953284)"/></g></svg>