<svg xmlns="http://www.w3.org/2000/svg" xmlns:xlink="http://www.w3.org/1999/xlink" width="512" zoomAndPan="magnify" viewBox="0 0 384 383.999986" height="512" preserveAspectRatio="xMidYMid meet" version="1.2"><defs><clipPath id="7e0c6442e1"><path d="M 0.160156 20 L 74 20 L 74 134 L 0.160156 134 Z M 0.160156 20 "/></clipPath><clipPath id="6ed16f1815"><rect x="0" width="76" y="0" height="147"/></clipPath><clipPath id="f7644d3de1"><rect x="0" width="112" y="0" height="55"/></clipPath><clipPath id="e7973dd6df"><rect x="0" width="21" y="0" height="55"/></clipPath></defs><g id="56a90832ab"><rect x="0" width="384" y="0" height="383.999986" style="fill:#ffffff;fill-opacity:1;stroke:none;"/><rect x="0" width="384" y="0" height="383.999986" style="fill:#ffffff;fill-opacity:1;stroke:none;"/><g transform="matrix(1,0,0,1,86,118)"><g clip-path="url(#6ed16f1815)"><g clip-rule="nonzero" clip-path="url(#7e0c6442e1)"><g style="fill:#007d0c;fill-opacity:1;"><g transform="translate(0.411273, 114.260419)"><path style="stroke:none" d="M 62.25 -88.984375 C 66.101562 -86.328125 68.875 -83.476562 70.5625 -80.4375 C 72.320312 -77.382812 73.320312 -73.570312 73.5625 -69 L 73.5625 -66.953125 C 73.5625 -61.171875 72.238281 -55.585938 69.59375 -50.203125 C 66.625 -44.179688 62.207031 -38.847656 56.34375 -34.203125 C 53.21875 -31.628906 50.207031 -29.5 47.3125 -27.8125 C 44.425781 -26.125 41.097656 -24.640625 37.328125 -23.359375 C 35.316406 -22.640625 33.148438 -21.957031 30.828125 -21.3125 C 28.421875 -20.664062 25.769531 -20.023438 22.875 -19.390625 C 22.070312 -19.222656 21.753906 -18.941406 21.921875 -18.546875 C 22.160156 -18.222656 23.242188 -17.21875 25.171875 -15.53125 C 30.304688 -11.113281 35.203125 -8.664062 39.859375 -8.1875 C 44.429688 -7.707031 48.242188 -9.191406 51.296875 -12.640625 C 51.859375 -13.203125 52.457031 -14.003906 53.09375 -15.046875 C 53.738281 -16.085938 54.222656 -17.050781 54.546875 -17.9375 C 54.941406 -18.820312 55.300781 -19.546875 55.625 -20.109375 C 56.03125 -20.753906 56.269531 -21.078125 56.34375 -21.078125 C 56.664062 -21.078125 57.3125 -20.753906 58.28125 -20.109375 C 59.320312 -19.546875 60.363281 -18.820312 61.40625 -17.9375 C 62.769531 -16.894531 63.492188 -15.894531 63.578125 -14.9375 C 63.578125 -14.050781 62.9375 -12.441406 61.65625 -10.109375 C 59.238281 -5.773438 56.023438 -3.128906 52.015625 -2.171875 C 47.921875 -1.128906 43.066406 -1.8125 37.453125 -4.21875 C 36.003906 -4.851562 33.632812 -6.253906 30.34375 -8.421875 C 27.132812 -10.515625 24.644531 -12.320312 22.875 -13.84375 C 22.15625 -14.570312 21.472656 -15.175781 20.828125 -15.65625 C 20.265625 -16.050781 19.941406 -16.25 19.859375 -16.25 C 19.703125 -16.25 19.625 -15.445312 19.625 -13.84375 C 19.539062 -12.238281 19.5 -10.3125 19.5 -8.0625 C 19.5 -2.28125 19.898438 2.53125 20.703125 6.375 C 21.585938 10.226562 22.953125 13.441406 24.796875 16.015625 C 25.679688 17.296875 26.046875 18.175781 25.890625 18.65625 C 25.890625 18.820312 25.726562 18.90625 25.40625 18.90625 C 25.082031 18.90625 24.679688 18.785156 24.203125 18.546875 C 22.679688 17.816406 21.234375 16.851562 19.859375 15.65625 C 18.492188 14.363281 17.332031 12.878906 16.375 11.203125 C 14.445312 7.828125 13.125 4.332031 12.40625 0.71875 C 11.601562 -2.894531 11.203125 -7.707031 11.203125 -13.71875 C 11.203125 -16.9375 11.117188 -19.144531 10.953125 -20.34375 C 10.878906 -21.632812 10.640625 -22.679688 10.234375 -23.484375 C 9.910156 -23.960938 9.707031 -24.398438 9.625 -24.796875 C 9.550781 -25.203125 9.59375 -25.445312 9.75 -25.53125 C 10.632812 -25.851562 11.273438 -26.492188 11.671875 -27.453125 C 12.078125 -28.335938 12.519531 -30.265625 13 -33.234375 C 13.726562 -37.566406 14.851562 -42.539062 16.375 -48.15625 C 17.820312 -53.78125 19.628906 -59.921875 21.796875 -66.578125 C 22.835938 -69.628906 23.679688 -72.28125 24.328125 -74.53125 C 24.960938 -76.78125 25.242188 -77.945312 25.171875 -78.03125 C 25.003906 -78.1875 24.195312 -77.703125 22.75 -76.578125 C 21.3125 -75.453125 19.789062 -74.085938 18.1875 -72.484375 C 17.0625 -71.441406 15.976562 -70.398438 14.9375 -69.359375 C 13.882812 -68.234375 13 -67.226562 12.28125 -66.34375 C 11.320312 -65.0625 10.4375 -63.898438 9.625 -62.859375 C 8.820312 -61.804688 8.382812 -61.203125 8.3125 -61.046875 C 7.988281 -60.160156 6.539062 -60.441406 3.96875 -61.890625 C 1.320312 -63.410156 0 -64.695312 0 -65.75 C 0 -66.46875 1.039062 -68.148438 3.125 -70.796875 C 5.132812 -73.441406 7.265625 -75.8125 9.515625 -77.90625 C 12.878906 -81.113281 16.570312 -83.882812 20.59375 -86.21875 C 24.601562 -88.625 28.9375 -90.546875 33.59375 -91.984375 C 35.757812 -92.710938 37.566406 -93.195312 39.015625 -93.4375 C 40.453125 -93.59375 42.695312 -93.671875 45.75 -93.671875 L 46.234375 -93.671875 C 50.003906 -93.671875 52.851562 -93.390625 54.78125 -92.828125 C 56.875 -92.265625 59.363281 -90.984375 62.25 -88.984375 Z M 33.109375 -82.59375 C 31.828125 -81.957031 29.941406 -81.078125 27.453125 -79.953125 C 28.171875 -79.472656 29.175781 -78.789062 30.46875 -77.90625 C 31.34375 -77.34375 32.101562 -76.738281 32.75 -76.09375 C 33.394531 -75.53125 33.753906 -75.085938 33.828125 -74.765625 C 33.910156 -74.453125 33.832031 -73.691406 33.59375 -72.484375 C 33.269531 -71.203125 32.867188 -69.835938 32.390625 -68.390625 C 30.785156 -63.648438 29.140625 -58.394531 27.453125 -52.625 C 25.765625 -46.84375 24.359375 -41.742188 23.234375 -37.328125 C 22.597656 -34.992188 22.117188 -32.988281 21.796875 -31.3125 C 21.390625 -29.625 21.1875 -28.5 21.1875 -27.9375 C 21.1875 -27.207031 21.832031 -26.96875 23.125 -27.21875 C 24.40625 -27.457031 26.8125 -28.296875 30.34375 -29.734375 C 39.175781 -33.191406 46.601562 -37.96875 52.625 -44.0625 C 58.71875 -50.164062 62.6875 -56.832031 64.53125 -64.0625 C 65.34375 -67.03125 65.625 -70.398438 65.375 -74.171875 C 65.132812 -77.859375 64.492188 -80.785156 63.453125 -82.953125 C 62.734375 -84.484375 62.171875 -85.445312 61.765625 -85.84375 C 61.285156 -86.25 60.441406 -86.613281 59.234375 -86.9375 C 58.429688 -87.175781 57.550781 -87.335938 56.59375 -87.421875 C 55.625 -87.578125 54.617188 -87.65625 53.578125 -87.65625 C 50.523438 -87.65625 47.234375 -87.210938 43.703125 -86.328125 C 40.097656 -85.441406 36.566406 -84.195312 33.109375 -82.59375 Z M 33.109375 -82.59375 "/></g></g></g></g></g><path style="fill:none;stroke-width:13;stroke-linecap:round;stroke-linejoin:miter;stroke:#000000;stroke-opacity:1;stroke-miterlimit:4;" d="M 6.596865 6.499995 C 11.565615 6.499995 16.529157 6.499995 21.497907 6.499995 " transform="matrix(0.75,0,0,0.75,172.345321,198.050785)"/><path style=" stroke:none;fill-rule:nonzero;fill:#ffd014;fill-opacity:1;" d="M 175.234375 201.941406 L 179.734375 201.941406 L 179.734375 203.441406 L 175.234375 203.441406 Z M 181.234375 201.941406 L 185.734375 201.941406 L 185.734375 203.441406 L 181.234375 203.441406 Z M 187.234375 201.941406 L 191.734375 201.941406 L 191.734375 203.441406 L 187.234375 203.441406 Z M 193.234375 201.941406 L 193.339844 201.941406 L 193.339844 203.441406 L 193.234375 203.441406 Z M 193.234375 201.941406 "/><g transform="matrix(1,0,0,1,193,175)"><g clip-path="url(#f7644d3de1)"><g style="fill:#000000;fill-opacity:1;"><g transform="translate(2.653905, 41.022588)"><path style="stroke:none" d="M 38.546875 -7.140625 L 39.5625 -5.765625 L 32.15625 0.1875 C 31.15625 -0.445312 30.328125 -1.410156 29.671875 -2.703125 C 29.015625 -3.992188 28.691406 -5.628906 28.703125 -7.609375 L 28.703125 -25.921875 C 28.265625 -25.921875 27.835938 -25.582031 27.421875 -24.90625 C 27.003906 -24.226562 26.582031 -23.335938 26.15625 -22.234375 C 25.738281 -21.128906 25.328125 -19.890625 24.921875 -18.515625 C 24.515625 -17.140625 24.117188 -15.742188 23.734375 -14.328125 C 23.359375 -12.910156 23.007812 -11.582031 22.6875 -10.34375 C 23.207031 -9.664062 23.710938 -9.203125 24.203125 -8.953125 C 24.691406 -8.710938 25.128906 -8.769531 25.515625 -9.125 L 26.265625 -7.984375 L 19.796875 -2.203125 C 19.085938 -2.203125 18.375 -2.664062 17.65625 -3.59375 C 16.9375 -4.53125 16.191406 -5.769531 15.421875 -7.3125 C 14.660156 -8.863281 13.863281 -10.570312 13.03125 -12.4375 C 12.195312 -14.300781 11.316406 -16.148438 10.390625 -17.984375 C 10.359375 -16.421875 10.347656 -14.890625 10.359375 -13.390625 C 10.378906 -11.898438 10.445312 -10.609375 10.5625 -9.515625 C 10.675781 -8.242188 10.898438 -7.367188 11.234375 -6.890625 C 11.566406 -6.421875 12.257812 -6.550781 13.3125 -7.28125 L 14.3125 -5.90625 L 6.96875 0.046875 C 5.957031 -0.585938 5.070312 -1.550781 4.3125 -2.84375 C 3.5625 -4.132812 3.191406 -5.769531 3.203125 -7.75 L 3.28125 -22.4375 C 3.257812 -23.820312 3.003906 -24.695312 2.515625 -25.0625 C 2.023438 -25.4375 1.128906 -25.210938 -0.171875 -24.390625 L -0.921875 -25.8125 L 7.15625 -32.46875 C 8.15625 -32.46875 9.160156 -31.984375 10.171875 -31.015625 C 11.191406 -30.046875 12.195312 -28.78125 13.1875 -27.21875 C 14.1875 -25.664062 15.160156 -23.976562 16.109375 -22.15625 C 17.066406 -20.332031 17.984375 -18.554688 18.859375 -16.828125 C 19.578125 -18.847656 20.421875 -20.785156 21.390625 -22.640625 C 22.367188 -24.492188 23.429688 -26.148438 24.578125 -27.609375 C 25.722656 -29.066406 26.945312 -30.21875 28.25 -31.0625 C 29.5625 -31.914062 30.925781 -32.335938 32.34375 -32.328125 C 33.21875 -31.679688 33.914062 -31.015625 34.4375 -30.328125 C 34.957031 -29.640625 35.320312 -28.820312 35.53125 -27.875 C 35.75 -26.925781 35.84375 -25.742188 35.8125 -24.328125 L 35.75 -9.375 C 35.90625 -8.101562 36.140625 -7.226562 36.453125 -6.75 C 36.773438 -6.28125 37.472656 -6.410156 38.546875 -7.140625 Z M 38.546875 -7.140625 "/></g></g><g style="fill:#000000;fill-opacity:1;"><g transform="translate(41.473928, 41.213455)"><path style="stroke:none" d="M 1 -27.984375 L 7.59375 -33.25 L 9.765625 -30.234375 L 2.65625 -25.6875 Z M 13.1875 -7.296875 L 14.203125 -5.890625 L 6.875 0.015625 C 5.894531 -0.585938 5.070312 -1.53125 4.40625 -2.8125 C 3.75 -4.101562 3.425781 -5.722656 3.4375 -7.671875 L 3.4375 -14.59375 C 3.375 -15.957031 3.054688 -16.820312 2.484375 -17.1875 C 1.910156 -17.5625 0.96875 -17.347656 -0.34375 -16.546875 L -1.03125 -17.96875 L 6.90625 -24.5625 C 7.789062 -23.90625 8.492188 -23.238281 9.015625 -22.5625 C 9.535156 -21.882812 9.894531 -21.085938 10.09375 -20.171875 C 10.300781 -19.253906 10.382812 -18.082031 10.34375 -16.65625 L 10.4375 -9.484375 C 10.40625 -8.359375 10.597656 -7.523438 11.015625 -6.984375 C 11.429688 -6.453125 12.15625 -6.554688 13.1875 -7.296875 Z M 13.1875 -7.296875 "/></g></g><g style="fill:#000000;fill-opacity:1;"><g transform="translate(55.474574, 41.232064)"><path style="stroke:none" d="M 13.171875 -7.328125 L 14.1875 -5.953125 L 6.875 0 C 5.894531 -0.59375 5.066406 -1.539062 4.390625 -2.84375 C 3.710938 -4.144531 3.375 -5.769531 3.375 -7.71875 L 3.359375 -25.953125 C 3.316406 -27.304688 3.003906 -28.175781 2.421875 -28.5625 C 1.847656 -28.945312 0.910156 -28.726562 -0.390625 -27.90625 L -1.09375 -29.328125 L 6.84375 -35.96875 C 7.726562 -35.320312 8.429688 -34.660156 8.953125 -33.984375 C 9.472656 -33.304688 9.84375 -32.492188 10.0625 -31.546875 C 10.28125 -30.609375 10.375 -29.425781 10.34375 -28 L 10.40625 -9.546875 C 10.382812 -8.398438 10.582031 -7.554688 11 -7.015625 C 11.414062 -6.484375 12.140625 -6.585938 13.171875 -7.328125 Z M 13.171875 -7.328125 "/></g></g><g style="fill:#000000;fill-opacity:1;"><g transform="translate(69.481753, 41.223289)"><path style="stroke:none" d="M 10.03125 -9.03125 C 11.007812 -8.070312 12.164062 -7.488281 13.5 -7.28125 C 14.832031 -7.082031 16.351562 -7.546875 18.0625 -8.671875 L 19 -7.25 L 9.625 -0.03125 C 8.625 -0.0625 7.609375 -0.460938 6.578125 -1.234375 C 5.554688 -2.015625 4.613281 -3.035156 3.75 -4.296875 C 2.894531 -5.554688 2.191406 -6.921875 1.640625 -8.390625 C 1.085938 -9.867188 0.785156 -11.320312 0.734375 -12.75 C 0.679688 -14.1875 0.960938 -15.46875 1.578125 -16.59375 C 1.867188 -17.0625 2.378906 -17.734375 3.109375 -18.609375 C 3.847656 -19.492188 4.71875 -20.394531 5.71875 -21.3125 C 6.726562 -22.238281 7.75 -23.019531 8.78125 -23.65625 C 9.8125 -24.289062 10.769531 -24.613281 11.65625 -24.625 C 12.519531 -24.625 13.394531 -24.359375 14.28125 -23.828125 C 15.175781 -23.304688 16.007812 -22.632812 16.78125 -21.8125 C 17.550781 -21 18.171875 -20.148438 18.640625 -19.265625 C 19.117188 -18.390625 19.359375 -17.582031 19.359375 -16.84375 Z M 7.5 -19.546875 C 6.925781 -19.109375 6.644531 -18.414062 6.65625 -17.46875 C 6.675781 -16.519531 6.910156 -15.484375 7.359375 -14.359375 C 7.804688 -13.234375 8.335938 -12.171875 8.953125 -11.171875 L 12.734375 -14.375 C 12.546875 -15.050781 12.25 -15.75 11.84375 -16.46875 C 11.445312 -17.195312 10.992188 -17.835938 10.484375 -18.390625 C 9.972656 -18.953125 9.457031 -19.359375 8.9375 -19.609375 C 8.425781 -19.867188 7.945312 -19.847656 7.5 -19.546875 Z M 7.5 -19.546875 "/></g></g><g style="fill:#000000;fill-opacity:1;"><g transform="translate(89.794694, 41.148974)"><path style="stroke:none" d="M 5.625 -19.78125 C 6.082031 -19.039062 6.722656 -18.4375 7.546875 -17.96875 C 8.378906 -17.507812 9.3125 -17.085938 10.34375 -16.703125 C 11.382812 -16.328125 12.429688 -15.925781 13.484375 -15.5 C 14.535156 -15.082031 15.515625 -14.554688 16.421875 -13.921875 C 17.328125 -13.296875 18.054688 -12.488281 18.609375 -11.5 C 19.171875 -10.519531 19.457031 -9.273438 19.46875 -7.765625 C 19.476562 -6.265625 19.160156 -5.015625 18.515625 -4.015625 C 17.867188 -3.015625 17 -2.226562 15.90625 -1.65625 C 14.820312 -1.082031 13.613281 -0.675781 12.28125 -0.4375 C 10.957031 -0.195312 9.613281 -0.0703125 8.25 -0.0625 C 6.882812 -0.0507812 5.566406 -0.195312 4.296875 -0.5 C 3.023438 -0.800781 1.921875 -1.234375 0.984375 -1.796875 C 0.046875 -2.367188 -0.644531 -3.070312 -1.09375 -3.90625 L 5.421875 -10.0625 L 6.5 -9.234375 C 6.175781 -8.898438 6.1875 -8.546875 6.53125 -8.171875 C 6.875 -7.804688 7.421875 -7.445312 8.171875 -7.09375 C 8.929688 -6.75 9.769531 -6.4375 10.6875 -6.15625 C 11.601562 -5.882812 12.476562 -5.664062 13.3125 -5.5 C 14.144531 -5.332031 14.785156 -5.25 15.234375 -5.25 C 15.273438 -5.875 14.929688 -6.445312 14.203125 -6.96875 C 13.484375 -7.5 12.546875 -8.023438 11.390625 -8.546875 C 10.234375 -9.066406 9 -9.601562 7.6875 -10.15625 C 6.382812 -10.71875 5.140625 -11.300781 3.953125 -11.90625 C 2.765625 -12.519531 1.796875 -13.203125 1.046875 -13.953125 C 0.304688 -14.703125 -0.0625 -15.535156 -0.0625 -16.453125 C -0.0703125 -17.429688 0.191406 -18.335938 0.734375 -19.171875 C 1.273438 -20.003906 1.929688 -20.753906 2.703125 -21.421875 C 3.484375 -22.097656 4.269531 -22.675781 5.0625 -23.15625 C 5.863281 -23.632812 6.535156 -24 7.078125 -24.25 C 7.628906 -24.507812 7.90625 -24.640625 7.90625 -24.640625 C 9.03125 -24.640625 10.160156 -24.523438 11.296875 -24.296875 C 12.429688 -24.066406 13.539062 -23.828125 14.625 -23.578125 C 15.707031 -23.335938 16.710938 -23.207031 17.640625 -23.1875 C 18.578125 -23.164062 19.394531 -23.363281 20.09375 -23.78125 L 20.828125 -22.8125 L 13.40625 -16.8125 C 12.695312 -16.8125 11.945312 -17.035156 11.15625 -17.484375 C 10.375 -17.941406 9.609375 -18.4375 8.859375 -18.96875 C 8.117188 -19.5 7.46875 -19.878906 6.90625 -20.109375 C 6.34375 -20.335938 5.914062 -20.226562 5.625 -19.78125 Z M 5.625 -19.78125 "/></g></g></g></g><g transform="matrix(1,0,0,1,149,174)"><g clip-path="url(#e7973dd6df)"><g style="fill:#000000;fill-opacity:1;"><g transform="translate(0.370682, 41.438913)"><path style="stroke:none" d="M 10.0625 -9 C 11.039062 -8.03125 12.195312 -7.441406 13.53125 -7.234375 C 14.863281 -7.023438 16.382812 -7.484375 18.09375 -8.609375 L 19.03125 -7.1875 L 9.625 0 C 8.625 -0.03125 7.613281 -0.4375 6.59375 -1.21875 C 5.570312 -2 4.628906 -3.019531 3.765625 -4.28125 C 2.910156 -5.539062 2.207031 -6.910156 1.65625 -8.390625 C 1.113281 -9.867188 0.816406 -11.320312 0.765625 -12.75 C 0.722656 -14.1875 1.015625 -15.46875 1.640625 -16.59375 C 1.929688 -17.0625 2.445312 -17.734375 3.1875 -18.609375 C 3.925781 -19.484375 4.796875 -20.378906 5.796875 -21.296875 C 6.804688 -22.210938 7.828125 -22.988281 8.859375 -23.625 C 9.898438 -24.257812 10.863281 -24.578125 11.75 -24.578125 C 12.613281 -24.578125 13.488281 -24.3125 14.375 -23.78125 C 15.257812 -23.25 16.085938 -22.570312 16.859375 -21.75 C 17.628906 -20.9375 18.25 -20.085938 18.71875 -19.203125 C 19.1875 -18.316406 19.421875 -17.503906 19.421875 -16.765625 Z M 7.578125 -19.515625 C 6.992188 -19.078125 6.707031 -18.382812 6.71875 -17.4375 C 6.738281 -16.488281 6.96875 -15.453125 7.40625 -14.328125 C 7.851562 -13.203125 8.382812 -12.140625 9 -11.140625 L 12.78125 -14.328125 C 12.601562 -15.003906 12.3125 -15.703125 11.90625 -16.421875 C 11.507812 -17.148438 11.054688 -17.796875 10.546875 -18.359375 C 10.046875 -18.921875 9.535156 -19.328125 9.015625 -19.578125 C 8.503906 -19.835938 8.023438 -19.816406 7.578125 -19.515625 Z M 7.578125 -19.515625 "/></g></g></g></g><path style="fill:none;stroke-width:1;stroke-linecap:butt;stroke-linejoin:miter;stroke:#ffffff;stroke-opacity:1;stroke-miterlimit:4;" d="M 0.00086651 0.502012 C 8.714759 0.500367 17.428651 0.498722 26.142591 0.502285 " transform="matrix(0.749969,0.00686577,-0.00686577,0.749969,173.737172,198.756313)"/><path style="fill:none;stroke-width:1;stroke-linecap:butt;stroke-linejoin:miter;stroke:#ffffff;stroke-opacity:1;stroke-miterlimit:4;" d="M 0.00215241 0.500074 C 8.716045 0.498429 17.429985 0.501992 26.143877 0.500346 " transform="matrix(0.749969,0.00686577,-0.00686577,0.749969,172.439319,205.925727)"/></g></svg>